<?xml version="1.0" encoding="UTF-8"?>
<svg id="_Слой_2" data-name="Слой 2" xmlns="http://www.w3.org/2000/svg" viewBox="0 0 781.74 206.64">
  <defs>
    <style>
      .cls-1 {
        fill: #f9d820;
      }

      .cls-1, .cls-2, .cls-3 {
        fill-rule: evenodd;
      }

      .cls-1, .cls-2, .cls-3, .cls-4 {
        stroke-width: 0px;
      }

      .cls-2 {
        fill: #5cb3ff;
      }

      .cls-3, .cls-4 {
        fill: #fff;
      }
    </style>
  </defs>
  <g id="Layer_1" data-name="Layer 1">
    <g id="MPATH4">
      <path class="cls-4" d="M650.14,136.03c9.94-102.73,13.73-128.29,14.68-130.5,0,0,.32-.16.79-.16,3.95-.32,23.35-1.26,55.7,1.1,36.77,2.84,56.18,6.63,60.44,7.73,0,10.57-2.05,44.03-6.15,100.2-4.1,56.33-6.79,86.79-7.89,91.52-.79.79-8.36.95-22.88.32-14.52-.63-21.93-1.42-22.25-2.21,0-4.58,1.58-28.72,4.89-72.43,3.31-43.71,5.52-69.75,6.47-78.43-13.26-.47-24.93-.95-29.82-3.31l-.63,7.89-10.26,96.73c-6.47,38.66-36.77,46.39-58.39,43.55l-11.05-1.89-2.84-.47c-2.84-5.37-.32-35.03,5.84-46.39h.95c6,2.37,20.51,3.95,22.25-13.26h.16,0Z"/>
    </g>
    <g id="MPATH5">
      <path class="cls-4" d="M553.56,59.66c4.42-.63,12.78-.32,25.41.95,12.62,1.26,19.25,2.37,20.04,3,.47,4.26-1.42,26.83-5.84,67.54-4.26,40.71-7.1,64.22-8.68,70.54-.95,1.42-8.84,1.42-23.35-.32s-21.93-3-21.93-3.95c0-8.36,2.05-30.77,5.84-67.22,3.79-36.45,6.63-59.96,8.52-70.69h0v.16Z"/>
    </g>
    <path id="PATH62" class="cls-3" d="M560.82,43.56c10.1,11.05,26.19,10.89,36.14-.16,9.78-11.05,11.05-27.46,2.68-36.61-8.36-9.15-24.62-8.99-36.14.16-11.52,9.15-12.78,25.56-2.68,36.61Z"/>
    <g id="MPATH7">
      <path class="cls-4" d="M57.75,121.67c6-.95,11.68-1.74,17.36-2.37,8.36-.95,15.15,0,20.51,3,5.37,2.84,8.52,7.73,9.15,14.52,1.58,14.68-8.52,23.2-30.14,25.56-4.73.47-8.99.79-12.78.63l-4.26-41.34M124.98,3.95c-1.1-2.05-73.22.95-124.98,13.73v3c2.68,28.25,9.15,101.94,19.73,178.79v4.73c15.94,0,36.29-1.26,60.91-3.95,23.67-2.52,41.5-9.47,53.02-20.99,11.52-11.52,16.57-26.35,14.68-44.66-2.05-20.51-9.94-34.72-23.35-42.92-13.41-8.05-32.19-10.89-56.49-8.36-1.42.16-3.95.47-7.26.95s-5.37.63-6.15.79c-.32-2.68-.79-8.36-1.74-17.2-.79-7.26-1.42-13.1-2.05-17.67l77.16-7.57c5.52.32,2.84-31.09-3.47-38.82h0v.16Z"/>
    </g>
    <g id="MPATH8">
      <path class="cls-4" d="M485.71,103.84v1.74c6.15,1.58,12.31,6.31,18.78,14.04,6.31,7.73,9.15,17.99,8.52,30.61-.95,18.62-8.21,32.82-21.93,42.45-13.73,9.63-30.14,14.04-49.55,12.94-15.15-.79-28.09-3.95-39.13-9.31s-18.94-11.2-23.67-17.36c-.32-2.05,2.84-7.42,9.31-15.94,6.47-8.52,11.36-13.41,14.68-14.83,9.15,9.31,20.83,14.36,35.19,15.15,8.52.47,14.99-1.26,19.73-5.21,4.73-3.95,7.26-8.84,7.57-14.83.32-6.47-1.89-11.84-6.47-15.78-4.58-3.95-11.68-6.15-20.83-6.63-1.42,0-5.52-.32-12.15-.47-6.63-.32-10.73-.47-12.15-.47-1.58-2.21-2.05-8.84-1.58-20.04.47-11.2,1.74-17.36,3.63-18.62,1.89,0,6.15.47,12.94.95,6.79.63,11.52.95,14.04,1.1,5.68.32,10.89-.79,15.78-3.47s7.42-7.26,7.73-14.04c.32-6.47-1.74-11.68-6-15.31-4.26-3.63-9.94-5.68-16.73-6.15-11.36-.63-21.15,3-29.35,10.73-2.52-.32-10.57-10.26-24.14-29.98,15.31-16.25,35.98-23.67,62.33-22.25,18.62.95,33.45,6.63,44.66,17.2,11.2,10.41,16.25,23.99,15.46,40.55-.63,11.2-3.63,20.51-9.31,27.77-5.68,7.42-11.36,12.47-17.2,15.31h-.16v.16Z"/>
    </g>
    <path id="PATH92" class="cls-3" d="M237.96,64.23c-15.46,5.05-31.09-5.21-34.56-23.2-3.63-17.99,3.95-35.98,16.73-40.08,12.78-4.26,28.25,6.15,34.56,23.2s-1.1,35.03-16.73,40.08Z"/>
    <path id="PATH102" class="cls-3" d="M197.09,98.16c-10.73,10.57-26.83,8.52-35.98-4.58-9.15-13.1-9.31-30.77-.47-39.45,8.84-8.68,24.93-6.63,35.98,4.58,11.05,11.2,11.2,28.88.47,39.45h0Z"/>
    <path id="PATH112" class="cls-3" d="M300.92,198.36c22.57,9.31,50.34,8.21,47.18-24.3-5.84-57.44-46.24-106.52-84.58-105.41-40.24.32-73.53,43.55-83.32,100.36-6.79,41.34,31.56,38.35,60.91,23.35,28.72-15.46,43.24-.32,59.96,5.84h0l-.16.16Z"/>
    <path id="PATH121" class="cls-2" d="M262.9,115.04c-10.41,0-16.25-15.15-31.56-5.05-12.31,8.21-6,27.93,8.21,41.03,12.78,11.84,17.36,15.31,23.99,15.31s14.04-6.94,21.62-14.52c17.04-17.36,21.3-37.08,6-43.4-15.46-6.47-18.62,6.47-28.25,6.63h0Z"/>
    <path id="PATH131" class="cls-1" d="M228.49,136.66c2.52,5.37,6.31,10.57,11.05,14.99,12.78,12.31,17.36,15.94,23.99,15.94s14.04-7.26,21.62-15.15c4.89-5.21,8.68-10.57,11.36-15.78h-68.01,0Z"/>
    <path id="PATH141" class="cls-3" d="M287.83,64.23c15.46,5.05,31.09-5.21,34.56-23.2,3.63-17.99-3.95-35.98-16.73-40.08-12.78-4.26-28.25,6.15-34.56,23.2-6.31,17.04,1.1,35.03,16.73,40.08Z"/>
    <path id="PATH151" class="cls-3" d="M328.7,98.16c10.73,10.57,26.83,8.52,35.98-4.58,9.15-13.1,9.31-30.77.47-39.45-8.84-8.68-24.93-6.63-35.98,4.58-11.05,11.2-11.2,28.88-.47,39.45Z"/>
  </g>
</svg>