<?xml version="1.0" encoding="UTF-8"?>
<svg id="_Слой_2" data-name="Слой 2" xmlns="http://www.w3.org/2000/svg" viewBox="0 0 233.15 62.81">
  <defs>
    <style>
      .cls-1 {
        fill: #f9d820;
      }

      .cls-1, .cls-2, .cls-3 {
        fill-rule: evenodd;
      }

      .cls-1, .cls-2, .cls-3, .cls-4 {
        stroke-width: 0px;
      }

      .cls-2 {
        fill: #5cb3ff;
      }

      .cls-3, .cls-4 {
        fill: #fff;
      }
    </style>
  </defs>
  <g id="_Слой_1-2" data-name="Слой 1">
    <g>
      <g id="MPATH5">
        <path class="cls-4" d="M175.11,18.03c1.34-.19,3.86-.1,7.68.29s5.82.72,6.06.91c.14,1.29-.43,8.11-1.76,20.41-1.29,12.3-2.15,19.41-2.62,21.32-.29.43-2.67.43-7.06-.1s-6.63-.91-6.63-1.19c0-2.53.62-9.3,1.76-20.32,1.14-11.02,2-18.12,2.58-21.37h0v.05Z"/>
      </g>
      <path id="PATH62" class="cls-3" d="M177.3,13.17c3.05,3.34,7.92,3.29,10.92-.05,2.96-3.34,3.34-8.3.81-11.06-2.53-2.77-7.44-2.72-10.92.05-3.48,2.77-3.86,7.73-.81,11.06Z"/>
      <path id="PATH92" class="cls-3" d="M75.49,19.41c-4.67,1.53-9.4-1.57-10.44-7.01-1.1-5.44,1.19-10.87,5.06-12.11,3.86-1.29,8.54,1.86,10.44,7.01,1.91,5.15-.33,10.59-5.06,12.11Z"/>
      <path id="PATH102" class="cls-3" d="M63.14,29.67c-3.24,3.2-8.11,2.58-10.87-1.38-2.77-3.96-2.81-9.3-.14-11.92,2.67-2.62,7.54-2,10.87,1.38,3.34,3.39,3.39,8.73.14,11.92h0Z"/>
      <path id="PATH112" class="cls-3" d="M94.52,59.95c6.82,2.81,15.21,2.48,14.26-7.34-1.76-17.36-13.97-32.19-25.56-31.86-12.16.1-22.22,13.16-25.18,30.33-2.05,12.5,9.54,11.59,18.41,7.06,8.68-4.67,13.07-.1,18.12,1.76h0l-.05.05Z"/>
      <path id="PATH121" class="cls-2" d="M83.03,34.77c-3.15,0-4.91-4.58-9.54-1.53-3.72,2.48-1.81,8.44,2.48,12.4,3.86,3.58,5.25,4.63,7.25,4.63s4.24-2.1,6.53-4.39c5.15-5.25,6.44-11.21,1.81-13.12-4.67-1.96-5.63,1.96-8.54,2h0Z"/>
      <path id="PATH131" class="cls-1" d="M72.63,41.3c.76,1.62,1.91,3.2,3.34,4.53,3.86,3.72,5.25,4.82,7.25,4.82s4.24-2.19,6.53-4.58c1.48-1.57,2.62-3.2,3.43-4.77h-20.56,0Z"/>
      <path id="PATH141" class="cls-3" d="M90.56,19.41c4.67,1.53,9.4-1.57,10.44-7.01,1.1-5.44-1.19-10.87-5.06-12.11-3.86-1.29-8.54,1.86-10.44,7.01-1.91,5.15.33,10.59,5.06,12.11Z"/>
      <path id="PATH151" class="cls-3" d="M102.92,29.67c3.24,3.2,8.11,2.58,10.87-1.38,2.77-3.96,2.81-9.3.14-11.92-2.67-2.62-7.54-2-10.87,1.38s-3.39,8.73-.14,11.92Z"/>
      <g id="MPATH85">
        <path class="cls-4" d="M18.47,36.33l1.2,12.41c1.72.03,3.6-.07,5.62-.29,3.12-.34,5.4-1.18,6.84-2.49,1.44-1.32,2.04-2.96,1.83-4.94-.48-4.37-4.01-6.2-10.58-5.48-.34.04-1.97.3-4.91.79M15.37,14.07l1.19,11.67c.61-.01,1.79-.12,3.55-.31,6.02-.66,8.82-2.99,8.38-6.98-.22-2.02-1.29-3.43-3.21-4.22-1.92-.79-3.97-1.06-6.16-.82-.88.1-2.12.31-3.75.65M37.42,27.85l.05.49c2.91.29,5.56,1.55,7.94,3.78,2.38,2.23,3.78,5.29,4.21,9.17,1.16,10.61-5.92,16.76-21.26,18.44-3.78.41-8.26.78-13.43,1.1-5.18.32-7.88.41-8.12.27s-1.45-9.39-3.63-27.75C1,14.99-.06,5.61,0,5.22c.08-.29,2.39-.77,6.91-1.46,4.53-.69,7.69-1.13,9.5-1.33,4.71-.52,8.86-.53,12.47-.04,3.6.49,6.73,1.81,9.38,3.95,2.65,2.15,4.18,5.13,4.6,8.96.61,5.52-1.21,9.71-5.44,12.56h0Z"/>
      </g>
      <g id="MPATH86">
        <path class="cls-4" d="M139.64,61.26c-4.27-.28-8.27-1.19-12-2.74s-6.51-3.08-8.33-4.61c-.04-.22.02-.63.17-1.21.15-.58.38-1.23.68-1.94.3-.71.61-1.48.95-2.31.34-.82.7-1.62,1.09-2.39s.76-1.45,1.11-2.04c.35-.6.66-1.07.94-1.42s.47-.49.58-.43c.05.06.39.31,1.01.74.62.44,1.14.79,1.58,1.07.43.28,1.04.67,1.83,1.18.79.51,1.56.94,2.33,1.3s1.6.73,2.51,1.09,1.86.67,2.86.91c1,.24,1.98.38,2.93.45,5.45.36,8.28-1.18,8.51-4.61.1-1.46-.58-2.75-2.03-3.86-1.45-1.11-4.2-2.22-8.24-3.33-5.66-1.56-9.82-3.87-12.49-6.95-2.67-3.08-3.84-7.29-3.49-12.63.33-5.05,2.58-9.18,6.74-12.38,4.16-3.2,9.66-4.57,16.52-4.12,4.27.28,8.16,1.02,11.66,2.21,3.5,1.19,6.08,2.55,7.73,4.07.48.42-.21,2.45-2.09,6.08-1.87,3.63-3.03,5.4-3.48,5.32-5.12-2.82-9.9-4.38-14.33-4.67-2.41-.16-4.28.16-5.6.94-1.32.79-2.03,1.91-2.13,3.37-.09,1.35.46,2.47,1.64,3.37s3.71,1.92,7.58,3.07c6.09,1.81,10.71,4.22,13.87,7.22s4.57,7.17,4.22,12.5c-.32,4.94-2.62,9.1-6.87,12.46-4.26,3.36-10.23,4.79-17.93,4.28h0Z"/>
      </g>
      <g id="MPATH87">
        <path class="cls-4" d="M232.98,49.78c.22,1.36.22,3.7,0,7.02s-.48,5.31-.76,5.95c-.02.22-5.97-.19-17.85-1.23-11.88-1.04-18.5-1.74-19.86-2.08.05-3.17.84-13.25,2.38-30.22,1.54-16.98,2.5-26.17,2.9-27.59.24-.26,2.7-.24,7.38.04,4.68.29,7.07.55,7.16.78,0,1.39-.62,8.67-1.86,21.82-1.24,13.16-2.02,21.03-2.36,23.62,12.48.63,20.11,1.25,22.89,1.88h0Z"/>
      </g>
    </g>
  </g>
</svg>